<?xml version="1.0" encoding="UTF-8"?>
<svg width="256px" height="256px" viewBox="0 0 256 256" xmlns="http://www.w3.org/2000/svg" xmlns:xlink="http://www.w3.org/1999/xlink" version="1.1">
 <!-- Generated by Pixelmator Pro 2.1.2 -->
 <path id="Path" d="M0.044 209.005 L15.552 209.005 15.552 224.513 0.044 224.513 Z M31.606 224.513 L31.606 143.465 91.713 143.465 91.713 157.161 47.906 157.161 47.906 175.16 88.656 175.16 88.656 188.856 47.906 188.856 47.906 210.816 93.185 210.816 93.185 224.513 Z M107.221 224.513 L107.221 143.465 123.181 143.465 156.348 197.572 156.348 143.465 171.516 143.465 171.516 224.513 155.103 224.513 122.389 171.651 122.389 224.513 Z M209.456 224.513 L180.591 143.465 198.25 143.465 218.738 203.459 238.661 143.465 255.98 143.465 227 224.513 209.455 224.513 Z" fill="#ffac00" fill-opacity="1" stroke="none"/>
 <defs>
  <text id="string" transform="matrix(1.0 0.0 0.0 1.0 22.0 16.0)" x="1.0" y="83.0" text-decoration="none" font-size="108.007" fill="#d23e44" font-family="Helvetica-Bold, Helvetica">DEV</text>
 </defs>
 <use id="DEV" xlink:href="#string"/>
</svg>
