<?xml version="1.0" encoding="UTF-8"?>
<svg width="24px" height="24px" viewBox="0 0 24 24" xmlns="http://www.w3.org/2000/svg" xmlns:xlink="http://www.w3.org/1999/xlink" version="1.1">
 <!-- Generated by Pixelmator Pro 2.1.2 -->
 <g id="group">
  <path id="Path" d="M0 0 L24 0 24 24 0 24 Z" fill="none" stroke="none"/>
  <path id="Path-1" d="M3 3 L21 3 C21.265 3 21.52 3.105 21.707 3.293 21.895 3.48 22 3.735 22 4 L22 20 C22 20.265 21.895 20.52 21.707 20.707 21.52 20.895 21.265 21 21 21 L3 21 C2.735 21 2.48 20.895 2.293 20.707 2.105 20.52 2 20.265 2 20 L2 4 C2 3.735 2.105 3.48 2.293 3.293 2.48 3.105 2.735 3 3 3 Z M12 15 L12 17 18 17 18 15 Z M8.414 12 L5.586 14.828 7 16.243 11.243 12 7 7.757 5.586 9.172 Z" fill="#d23e44" fill-opacity="1" stroke="none"/>
 </g>
</svg>
