<?xml version="1.0" encoding="UTF-8"?>
<svg width="24px" height="24px" viewBox="0 0 24 24" xmlns="http://www.w3.org/2000/svg" xmlns:xlink="http://www.w3.org/1999/xlink" version="1.1">
 <!-- Generated by Pixelmator Pro 2.1.2 -->
 <g id="group">
  <path id="Path" d="M0 0 L24 0 24 24 0 24 Z" fill="none" stroke="none"/>
  <path id="Path-1" d="M1.2 1.2 L22.8 1.2 C23.118 1.2 23.423 1.326 23.649 1.551 23.874 1.777 24 2.082 24 2.4 L24 21.6 C24 21.918 23.874 22.223 23.649 22.449 23.423 22.674 23.118 22.8 22.8 22.8 L1.2 22.8 C0.882 22.8 0.577 22.674 0.351 22.449 0.126 22.223 -0 21.918 -0 21.6 L-0 2.4 C-0 2.082 0.126 1.777 0.351 1.551 0.577 1.326 0.882 1.2 1.2 1.2 Z M12 15.6 L12 18 19.2 18 19.2 15.6 Z M7.697 12 L4.303 15.394 6 17.092 11.092 12 6 6.908 4.303 8.606 Z" fill="#d23e44" fill-opacity="1" stroke="none"/>
 </g>
</svg>
