<?xml version="1.0" encoding="UTF-8"?>
<svg width="16px" height="16px" viewBox="0 0 16 16" xmlns="http://www.w3.org/2000/svg" xmlns:xlink="http://www.w3.org/1999/xlink" version="1.1">
 <!-- Generated by Pixelmator Pro 2.1.2 -->
 <g id="file_type_typescript">
  <path id="Combined-Shape" d="M14.265 16 L1.735 16 C0.777 15.999 0.001 15.223 0 14.265 L0 1.735 C0.001 0.777 0.777 0.001 1.735 0 L14.265 0 C15.223 0.001 15.999 0.777 16 1.735 L16 14.265 C15.999 15.223 15.223 15.999 14.265 16 Z M2.028 1.143 C1.54 1.143 1.143 1.54 1.143 2.028 L1.143 13.972 C1.143 14.46 1.54 14.857 2.028 14.857 L13.972 14.857 C14.46 14.857 14.857 14.46 14.857 13.972 L14.857 2.028 C14.857 1.54 14.46 1.143 13.972 1.143 Z" fill="#86acbf" fill-opacity="1" stroke="none"/>
  <path id="file_type_js.svg-path" d="M10.93 7.099 C10.505 7.12 10.101 7.293 9.793 7.588 9.498 7.88 9.339 8.282 9.355 8.698 9.332 9.342 9.684 9.94 10.258 10.233 10.5 10.369 10.75 10.489 11.008 10.593 11.307 10.689 11.586 10.843 11.827 11.045 11.976 11.212 12.013 11.452 11.92 11.656 11.89 11.709 11.853 11.757 11.811 11.8 11.631 11.958 11.396 12.038 11.157 12.022 10.701 12.033 10.273 11.797 10.04 11.404 10.017 11.367 9.99 11.333 9.961 11.301 9.949 11.301 9.02 11.838 9 11.856 8.981 11.875 9 11.893 9.046 11.971 9.414 12.595 10.06 13.003 10.781 13.068 11.042 13.096 11.306 13.096 11.567 13.068 11.998 13.029 12.403 12.849 12.722 12.557 13.03 12.254 13.196 11.835 13.178 11.403 13.185 11.134 13.129 10.867 13.014 10.624 12.942 10.472 12.844 10.334 12.724 10.217 12.358 9.888 11.931 9.635 11.466 9.473 11.18 9.381 10.915 9.234 10.684 9.042 10.579 8.931 10.527 8.781 10.542 8.629 10.543 8.515 10.587 8.405 10.664 8.322 10.782 8.193 10.953 8.128 11.127 8.144 11.332 8.132 11.531 8.211 11.671 8.362 11.73 8.421 11.783 8.486 11.83 8.555 11.845 8.593 11.872 8.625 11.906 8.648 11.937 8.634 12.825 8.06 12.825 8.052 12.825 8.044 12.78 7.976 12.725 7.893 12.596 7.704 12.436 7.537 12.252 7.401 11.972 7.217 11.647 7.112 11.312 7.099 11.185 7.085 11.057 7.085 10.93 7.099 Z" fill="#86acbf" fill-opacity="1" stroke="none"/>
  <path id="file_type_typescript.svg-path" d="M5.58 13.051 L5.58 8.213 3.977 8.213 3.977 7.051 8.443 7.051 8.443 8.213 6.79 8.213 6.79 13.051 Z" fill="#86acbf" fill-opacity="1" stroke="none"/>
 </g>
</svg>
