<?xml version="1.0" encoding="UTF-8"?>
<svg width="25px" height="17px" viewBox="0 0 25 17" xmlns="http://www.w3.org/2000/svg" xmlns:xlink="http://www.w3.org/1999/xlink" version="1.1">
 <!-- Generated by Pixelmator Pro 2.1.2 -->
 <g id="group">
  <path id="Path" d="M20.86 0.15 C21.71 0.348 22.483 0.793 23.08 1.43 23.409 1.774 23.694 2.157 23.93 2.57 23.93 2.57 22.4 3.65 21.47 4.23 21.47 4.23 21.3 4.11 21.15 3.88 20.804 3.28 20.172 2.902 19.48 2.88 18.4 2.81 17.71 3.37 17.71 4.31 17.699 4.543 17.751 4.774 17.86 4.98 18.1 5.47 18.54 5.76 19.92 6.36 22.46 7.46 23.56 8.18 24.23 9.2 25.001 10.511 25.155 12.095 24.65 13.53 23.951 15.115 22.446 16.195 20.72 16.35 19.82 16.463 18.91 16.463 18.01 16.35 16.634 16.126 15.365 15.467 14.39 14.47 14.021 14.056 13.708 13.596 13.46 13.1 13.565 13.022 13.675 12.952 13.79 12.89 L15.11 12.13 16.11 11.53 16.32 11.84 C16.681 12.355 17.139 12.793 17.67 13.13 18.763 13.732 20.102 13.666 21.13 12.96 21.678 12.433 21.763 11.585 21.33 10.96 21.05 10.56 20.49 10.23 18.89 9.54 17.632 9.115 16.487 8.411 15.54 7.48 15.08 6.967 14.739 6.36 14.54 5.7 14.399 4.951 14.378 4.185 14.48 3.43 14.872 1.639 16.35 0.289 18.17 0.06 19.066 -0.045 19.973 -0.015 20.86 0.15 Z M12.52 1.63 L12.52 3.08 7.9 3.08 7.9 16.23 4.63 16.23 4.63 3.09 0 3.09 0 1.66 C-0.026 1.17 -0.026 0.68 0 0.19 L12.46 0.19 Z" fill="#d23e44" fill-opacity="1" stroke="none"/>
 </g>
</svg>
